<svg xmlns="http://www.w3.org/2000/svg" width="16px" height="16px" viewBox="0 0 64 64">
  <g fill="none" fill-rule="evenodd">
    <path fill="#1890FF" fill-rule="nonzero" d="M62.7016389,10.7662651 L33.2332845,1.15180723 C32.7269554,0.94939759 32.2206262,0.94939759 31.6130313,1.15180723 L2.14467688,10.7662651 C1.13201865,11.0698795 0.423157895,12.0819277 0.423157895,13.1951807 L0.423157895,51.8554217 C0.423157895,52.9686747 1.13201865,53.8795181 2.14467688,54.2843373 L31.6130313,63.8987952 C31.9168288,64 32.1193604,64 32.4231579,64 C32.7269554,64 32.929487,64 33.2332845,63.8987952 L62.7016389,54.1831325 C63.7142971,53.8795181 64.4231579,52.8674699 64.4231579,51.7542169 L64.4231579,13.1951807 C64.4231579,12.0819277 63.7142971,11.1710843 62.7016389,10.7662651 Z"/>
    <path fill="#FFF" fill-rule="nonzero" d="M29.8915123,58.0289157 L5.48644903,50.0337349 L5.48644903,16.6361446 L15.207968,19.773494 L15.207968,38.6987952 C15.207968,40.1156627 16.3218921,41.2289157 17.7396136,41.2289157 C19.1573351,41.2289157 20.2712592,40.1156627 20.2712592,38.6987952 L20.2712592,21.4939759 L29.9927781,24.6313253 L29.9927781,58.0289157 L29.8915123,58.0289157 Z"/>
    <path fill="#E6F7FF" fill-rule="nonzero" d="M32.4231579 20.1783133L25.5370819 17.9518072 30.3978414 16.2313253C31.7142971 15.7253012 32.4231579 14.3084337 31.9168288 12.9927711 31.4104997 11.6771084 29.9927781 11.0698795 28.6763225 11.4746988L17.8408794 15.4216867 11.0560693 13.1951807 32.4231579 6.21204819 53.7902465 13.1951807 32.4231579 20.1783133zM59.3598668 50.0337349L49.6383478 53.1710843 49.6383478 42.2409639C49.6383478 40.8240964 48.5244237 39.7108434 47.1067022 39.7108434 45.6889807 39.7108434 44.6763225 40.8240964 44.6763225 42.2409639L44.6763225 54.8915663 34.9548035 58.0289157 34.9548035 24.6313253 59.3598668 16.6361446 59.3598668 50.0337349z"/>
    <rect width="64" height="64"/>
  </g>
</svg>
