<svg xmlns="http://www.w3.org/2000/svg" width="16px" height="16px" viewBox="0 0 64 64">
  <g fill="#1890FF">
    <path d="M9.56202987,63.5796216 L53.4379701,63.5796216 C58.7189334,63.5796216 63,59.2873999 63,53.9926761 L63,34 L56.6253134,34 L56.6253134,53.9926761 C56.6253134,55.7575841 55.1982912,57.1883246 53.4379701,57.1883246 L9.56202987,57.1883246 C7.80170878,57.1883246 6.37468658,55.7575841 6.37468658,53.9926761 L6.37468658,9.58694544 C6.37468658,7.82203752 7.80170878,6.39129696 9.56202987,6.39129696 L37.2749817,6.39129696 L37.2749817,0 L9.56202987,0 C4.2810666,0 0,4.29222167 0,9.58694544 L0,53.9926761 C0,59.2873999 4.2810666,63.5796216 9.56202987,63.5796216 Z"/>
    <path d="M52.5031649,30.6957335 L62.0651947,21.108788 C62.6637046,20.5093858 63,19.6960214 63,18.8478667 C63,17.9997121 62.6637046,17.1863477 62.0651947,16.5869454 L52.5031649,7 L47.9930741,11.5218426 L52.1127153,15.6522183 L37.0607762,15.6522183 C26.4988496,15.6522183 17.9367165,24.2366616 17.9367165,34.8261091 L17.9367165,44.7343602 L24.311403,44.7343602 L24.311403,34.8261091 C24.311403,27.7664774 30.0194918,22.0435152 37.0607762,22.0435152 L52.1127153,22.0435152 L47.9930741,26.1738909 L52.5031649,30.6957335 Z"/>
  </g>
</svg>
